<?xml version="1.0" standalone="no"?>
<!DOCTYPE svg PUBLIC "-//W3C//DTD SVG 20010904//EN"
 "http://www.w3.org/TR/2001/REC-SVG-20010904/DTD/svg10.dtd">
<svg version="1.0" xmlns="http://www.w3.org/2000/svg"
 width="700.000000pt" height="700.000000pt" viewBox="0 0 700.000000 700.000000"
 preserveAspectRatio="xMidYMid meet">
<metadata>
Created by potrace 1.14, written by Peter Selinger 2001-2017
</metadata>
<g transform="translate(0.000000,700.000000) scale(0.100000,-0.100000)"
fill="#000000" stroke="none">
<path d="M6270 6985 c-78 -29 -3541 -1767 -3570 -1791 -17 -15 -41 -45 -52
-68 -22 -41 -22 -44 -23 -753 0 -391 -2 -713 -5 -716 -3 -2 -563 -190 -1245
-417 -682 -226 -1257 -423 -1277 -436 -21 -13 -50 -43 -65 -67 l-28 -42 0
-1270 c0 -1205 1 -1272 18 -1303 28 -52 85 -99 133 -111 57 -14 4012 -15 4064
-1 48 13 106 63 132 113 21 40 22 55 24 392 1 193 2 352 3 355 1 4 413 5 431
1 3 0 4 -153 3 -338 -3 -381 0 -403 65 -466 72 -70 33 -67 814 -66 675 0 705
1 743 19 52 26 102 83 116 134 17 61 17 6634 0 6694 -31 112 -170 179 -281
137z m-145 -3555 c0 -1645 -2 -2990 -5 -2991 -25 -4 -854 -3 -861 1 -5 3 -9
163 -9 355 -1 325 -3 353 -21 389 -26 53 -54 82 -105 107 -42 20 -58 20 -527
21 -461 0 -487 -1 -528 -20 -53 -24 -92 -64 -115 -117 -14 -35 -17 -85 -17
-387 0 -313 -2 -348 -16 -349 -21 -1 -833 -1 -847 0 -8 1 -11 619 -11 2229 l0
2229 1521 761 c837 418 1526 761 1531 761 7 1 10 -1002 10 -2989z m-3500
-1612 c0 -825 -4 -1372 -9 -1376 -13 -7 -2156 -8 -2168 -1 -7 5 -11 315 -10
980 0 536 1 991 1 1011 l1 36 233 77 c127 42 241 80 252 85 11 5 119 41 240
80 121 39 229 75 240 80 11 5 65 23 120 40 55 17 107 34 115 37 8 4 17 7 20 8
10 2 686 227 700 232 8 4 17 7 20 8 28 7 209 68 220 74 8 5 17 7 20 4 3 -2 5
-621 5 -1375z"/>
<path d="M5250 5470 l0 -220 219 0 220 0 -1 219 0 220 -219 0 -219 0 0 -219z"/>
<path d="M3563 4812 l-63 -3 0 -217 0 -218 218 1 217 0 1 218 2 217 -27 1
c-103 3 -297 3 -348 1z"/>
<path d="M4387 4810 c-10 -4 -13 -57 -12 -220 l0 -215 219 0 218 0 0 213 c0
117 -2 215 -5 218 -7 7 -404 10 -420 4z"/>
<path d="M5250 4595 l0 -221 213 2 c116 1 215 2 219 3 3 0 7 98 7 216 l0 215
-22 0 c-12 1 -111 2 -220 3 l-197 2 0 -220z"/>
<path d="M3500 3719 l0 -219 219 0 218 0 -1 218 -1 217 -217 1 -218 1 0 -218z"/>
<path d="M4379 3921 c-1 -9 -2 -107 -3 -218 l-1 -203 220 0 220 0 -2 193 c-1
105 -2 204 -2 218 l-1 26 -215 0 c-190 0 -215 -2 -216 -16z"/>
<path d="M5250 3719 l0 -219 220 0 220 0 -1 218 -2 219 -218 0 -219 1 0 -219z"/>
<path d="M3509 3059 c-5 -3 -8 -96 -7 -220 l3 -214 215 0 215 0 1 218 c1 156
-1 217 -10 218 -68 4 -410 3 -417 -2z"/>
<path d="M4377 3055 c-2 -5 -3 -104 -3 -220 l1 -210 218 0 217 -1 1 51 c5 371
4 385 -11 386 -141 6 -420 2 -423 -6z"/>
<path d="M5250 2845 l0 -220 218 0 217 0 2 218 3 217 -23 1 c-12 0 -111 1
-220 2 l-197 2 0 -220z"/>
<path d="M3500 1970 l0 -220 218 0 219 0 -1 218 -1 217 -217 3 -218 3 0 -221z"/>
<path d="M4379 2187 c-1 -1 -2 -100 -3 -219 l-2 -218 218 0 218 0 1 48 c0 54
0 361 0 380 -1 9 -49 12 -216 12 -118 -1 -216 -2 -216 -3z"/>
<path d="M5250 1969 l0 -219 219 0 218 0 1 220 1 220 -219 -1 -220 -1 0 -219z"/>
<path d="M875 1970 l0 -220 217 0 218 0 1 38 c1 51 1 374 0 389 -1 8 -59 12
-219 12 l-217 0 0 -219z"/>
<path d="M1750 1970 l0 -220 220 0 220 0 -1 219 -1 220 -219 0 -219 1 0 -220z"/>
<path d="M889 1312 c-12 -2 -14 -37 -14 -220 l0 -217 218 0 c140 0 217 3 218
10 0 5 1 103 2 218 l2 207 -85 1 c-47 0 -139 1 -206 2 -66 1 -127 1 -135 -1z"/>
<path d="M1773 1312 l-23 -3 0 -217 0 -218 218 1 217 0 3 218 2 217 -37 0
c-21 1 -110 2 -198 3 -88 1 -170 1 -182 -1z"/>
</g>
</svg>
